<svg width="460" height="291" viewBox="0 0 460 291" fill="none" xmlns="http://www.w3.org/2000/svg">
<path fill-rule="evenodd" clip-rule="evenodd" d="M183 108.906C197.965 72.0293 258.345 35.4381 319.107 15.4667L335.926 26.5164L325.374 55.8832L353 37.7336L380.626 55.8832L370.074 26.5164L397.7 8.36678H363.552L362.066 4.22947C398.987 -2.79552 431.762 -1.6139 449 11.9061C500 51.9061 353 148.906 339 151.906C334.832 152.799 315.028 156.951 288.675 162.465L314.7 145.367H280.552L270 116L259.448 145.367H225.3L252.926 163.516L250.43 170.463C212.677 178.355 171.053 187.049 143 192.906L14 290.906L0 249.906C51.6667 225.906 160.6 164.106 183 108.906Z" fill="#C4C4C4"/>
</svg>
